<?xml version="1.0" standalone="no"?>
<!DOCTYPE svg PUBLIC "-//W3C//DTD SVG 20010904//EN"
 "http://www.w3.org/TR/2001/REC-SVG-20010904/DTD/svg10.dtd">
<svg version="1.0" xmlns="http://www.w3.org/2000/svg"
 width="512.000000pt" height="512.000000pt" viewBox="0 0 512.000000 512.000000"
 preserveAspectRatio="xMidYMid meet">

<g transform="translate(0.000000,512.000000) scale(0.100000,-0.100000)"
fill="#000000" stroke="none">
<path d="M1143 5105 c-208 -56 -333 -226 -333 -450 l0 -65 -193 0 c-215 0
-270 -9 -368 -61 -70 -38 -157 -126 -193 -197 -59 -116 -56 -31 -56 -1682 0
-1668 -4 -1569 61 -1691 62 -115 197 -214 328 -239 35 -6 481 -10 1260 -10
l1207 0 12 -93 c11 -93 60 -278 102 -389 28 -76 104 -159 178 -195 48 -23 70
-27 142 -28 73 0 94 4 147 29 74 34 135 95 168 169 13 29 52 172 86 319 35
148 66 268 69 268 3 0 34 -120 69 -268 66 -282 92 -356 144 -411 100 -105 258
-138 390 -82 64 27 141 102 171 165 61 130 112 340 126 525 12 148 25 235 47
311 13 46 28 67 93 130 125 122 203 242 260 399 93 255 75 512 -53 741 -57
102 -205 250 -307 307 -124 70 -280 113 -407 113 l-53 0 0 714 c0 443 -4 734
-10 767 -25 131 -124 266 -239 328 -98 52 -153 61 -368 61 l-193 0 0 65 c0
135 -44 248 -130 335 -98 97 -244 145 -375 123 -228 -39 -375 -219 -375 -458
l0 -65 -430 0 -430 0 0 65 c0 35 -5 88 -11 117 -51 240 -302 396 -536 333z
m191 -344 c27 -27 31 -39 34 -101 l4 -70 -122 0 -122 0 4 70 c4 72 25 110 73
131 37 16 96 3 129 -30z m1740 0 c27 -27 31 -39 34 -101 l4 -70 -122 0 -122 0
4 70 c4 72 25 110 73 131 37 16 96 3 129 -30z m-1702 -625 c3 -146 9 -164 72
-210 39 -29 133 -29 172 0 63 46 69 64 72 210 l4 134 708 0 708 0 4 -134 c3
-146 9 -164 72 -210 39 -29 133 -29 172 0 63 46 69 64 72 210 l4 135 193 -3
c212 -3 220 -5 269 -72 19 -25 21 -43 24 -247 l3 -219 -1800 0 -1801 0 0 204
c0 212 5 243 43 285 46 50 50 50 544 51 l461 0 4 -134z m2548 -1110 l0 -384
-47 -27 c-27 -15 -62 -38 -80 -51 l-31 -24 -54 37 c-259 176 -605 188 -888 30
-102 -57 -250 -205 -307 -307 -128 -229 -146 -486 -53 -741 56 -155 136 -278
255 -394 69 -67 95 -101 95 -124 0 -8 -346 -10 -1194 -9 -1189 3 -1195 3
-1222 24 -15 11 -37 33 -48 48 -21 27 -21 34 -24 1167 l-2 1139 1800 0 1800 0
0 -384z m-561 -641 c156 -37 280 -141 355 -298 49 -102 63 -118 120 -142 82
-35 182 19 205 110 10 39 8 54 -10 107 -11 34 -29 79 -40 99 l-19 38 47 27
c200 118 458 87 622 -75 175 -171 206 -408 86 -656 -45 -94 -137 -206 -209
-256 -88 -60 -151 -274 -175 -589 -14 -189 -79 -425 -116 -425 -17 0 -29 40
-90 300 -40 165 -77 317 -84 337 -17 52 -94 134 -155 166 -44 23 -63 27 -136
27 -73 0 -92 -4 -135 -27 -55 -29 -129 -102 -147 -146 -6 -15 -45 -169 -87
-342 -68 -281 -79 -315 -96 -315 -15 0 -24 13 -38 55 -55 164 -68 230 -82 400
-15 185 -45 329 -90 442 -22 56 -39 77 -120 151 -151 140 -230 293 -242 470
-23 349 297 621 636 542z"/>
<path d="M865 3006 c-97 -43 -124 -171 -54 -251 42 -47 84 -57 221 -53 126 3
147 11 192 72 29 39 29 133 0 172 -46 62 -65 69 -202 72 -91 1 -136 -2 -157
-12z"/>
<path d="M1605 3006 c-97 -43 -124 -171 -54 -251 42 -47 84 -57 221 -53 126 3
147 11 192 72 29 39 29 133 0 172 -46 62 -65 69 -202 72 -91 1 -136 -2 -157
-12z"/>
<path d="M2345 3006 c-97 -43 -124 -171 -54 -251 42 -47 84 -57 221 -53 99 2
121 6 144 24 53 39 69 71 69 134 0 63 -16 95 -69 134 -24 18 -44 21 -154 24
-91 1 -136 -2 -157 -12z"/>
<path d="M865 2366 c-97 -43 -124 -171 -54 -251 42 -47 84 -57 221 -53 126 3
147 11 192 72 29 39 29 133 0 172 -46 62 -65 69 -202 72 -91 1 -136 -2 -157
-12z"/>
<path d="M1605 2366 c-97 -43 -124 -171 -54 -251 42 -47 84 -57 221 -53 126 3
147 11 192 72 29 39 29 133 0 172 -46 62 -65 69 -202 72 -91 1 -136 -2 -157
-12z"/>
<path d="M865 1726 c-97 -43 -124 -171 -54 -251 42 -47 84 -57 221 -53 126 3
147 11 192 72 29 39 29 133 0 172 -46 62 -65 69 -202 72 -91 1 -136 -2 -157
-12z"/>
<path d="M1605 1726 c-97 -43 -124 -171 -54 -251 42 -47 84 -57 221 -53 126 3
147 11 192 72 29 39 29 133 0 172 -46 62 -65 69 -202 72 -91 1 -136 -2 -157
-12z"/>
</g>
</svg>
