<?xml version="1.0" standalone="no"?>
<!DOCTYPE svg PUBLIC "-//W3C//DTD SVG 20010904//EN"
 "http://www.w3.org/TR/2001/REC-SVG-20010904/DTD/svg10.dtd">
<svg version="1.0" xmlns="http://www.w3.org/2000/svg"
 width="512.000000pt" height="512.000000pt" viewBox="0 0 512.000000 512.000000"
 preserveAspectRatio="xMidYMid meet">

<g transform="translate(0.000000,512.000000) scale(0.100000,-0.100000)"
fill="#000000" stroke="none">
<path d="M1930 5104 c-112 -30 -214 -113 -262 -214 l-23 -47 -65 -6 c-140 -12
-242 -92 -285 -225 l-17 -51 -388 -3 c-375 -3 -390 -4 -416 -24 -15 -11 -37
-33 -48 -48 l-21 -27 0 -2179 0 -2179 21 -27 c11 -15 33 -37 48 -48 27 -21 29
-21 1399 -21 l1372 0 53 24 c67 30 145 114 166 178 8 27 32 119 52 206 21 86
41 157 44 157 3 0 23 -71 44 -157 20 -87 44 -179 52 -205 20 -61 92 -141 158
-176 44 -23 63 -27 136 -26 104 0 163 27 233 104 39 43 52 70 83 163 45 139
70 271 79 407 3 58 11 132 17 165 11 55 17 65 83 130 115 113 193 242 242 402
23 76 26 106 27 223 0 126 -2 141 -31 223 -44 124 -86 190 -183 287 -67 67
-103 94 -170 128 -47 23 -109 48 -137 55 l-53 12 -2 1077 c-3 1070 -3 1077
-24 1104 -11 15 -33 37 -48 48 -26 20 -43 21 -419 26 l-391 5 -6 31 c-4 16
-20 54 -36 83 -50 93 -139 148 -253 158 l-66 6 -23 47 c-49 103 -151 185 -267
215 -83 21 -594 21 -675 -1z m631 -332 c27 -24 33 -38 40 -92 7 -66 26 -99 73
-134 23 -18 45 -21 147 -24 l119 -4 0 -119 0 -119 -670 0 -670 0 0 119 0 119
119 4 c102 3 124 6 147 24 45 33 66 69 71 120 2 27 9 62 15 77 20 53 39 56
320 57 l258 0 31 -28z m-1279 -621 c3 -96 15 -123 72 -165 27 -21 34 -21 916
-21 882 0 889 0 916 21 57 42 69 69 72 165 l4 89 279 0 279 0 0 -970 c0 -916
-1 -971 -17 -976 -59 -18 -153 -62 -196 -91 l-49 -33 -32 25 c-44 33 -168 89
-236 106 -79 20 -269 18 -350 -4 -99 -26 -222 -92 -294 -158 l-63 -58 -501 -3
c-488 -3 -501 -4 -528 -24 -53 -39 -69 -71 -69 -134 0 -63 16 -95 69 -134 27
-20 41 -21 445 -24 l418 -3 -9 -57 c-5 -31 -8 -87 -6 -124 l3 -67 -412 -3
c-398 -3 -412 -4 -439 -24 -53 -39 -69 -71 -69 -134 0 -63 16 -95 69 -134 27
-20 42 -21 491 -26 l464 -5 42 -65 c23 -36 76 -99 119 -140 89 -88 85 -76 106
-312 8 -91 25 -207 37 -257 l23 -91 -1058 0 -1058 0 0 1960 0 1960 279 0 279
0 4 -89z m2014 -2195 c88 -44 141 -101 193 -206 56 -113 126 -150 217 -115 90
34 124 124 85 223 -12 29 -21 57 -21 63 0 18 124 69 186 75 266 28 480 -206
434 -475 -18 -109 -83 -232 -162 -307 -35 -33 -72 -67 -83 -75 -11 -8 -28 -24
-38 -35 -30 -36 -66 -204 -82 -388 -10 -119 -23 -202 -41 -262 -14 -49 -27
-90 -29 -93 -7 -6 -11 8 -70 253 -30 126 -64 244 -76 262 -51 83 -156 144
-249 144 -103 0 -215 -72 -257 -166 -13 -27 -45 -146 -73 -264 -62 -261 -59
-252 -71 -221 -29 74 -52 194 -64 336 -18 199 -42 324 -75 384 -6 12 -41 46
-77 76 -86 71 -146 151 -185 250 -28 71 -32 91 -33 180 0 92 3 105 32 167 40
85 97 147 172 186 79 43 122 52 215 47 66 -3 91 -9 152 -39z"/>
<path d="M2205 3556 c-37 -17 -70 -52 -84 -89 -6 -16 -11 -84 -11 -152 l0
-123 -139 -4 c-122 -3 -143 -6 -167 -24 -53 -39 -69 -71 -69 -134 0 -63 16
-95 69 -134 24 -18 45 -21 166 -24 l139 -3 3 -139 c3 -121 6 -142 24 -166 39
-53 71 -69 134 -69 63 0 95 16 134 69 18 24 21 45 24 166 l3 139 139 3 c121 3
142 6 166 24 53 39 69 71 69 134 0 63 -16 95 -69 134 -24 18 -45 21 -166 24
l-139 3 -3 139 c-3 150 -9 168 -70 213 -34 25 -113 32 -153 13z"/>
<path d="M1095 2066 c-101 -44 -125 -178 -46 -257 65 -65 157 -65 222 0 124
124 -15 327 -176 257z"/>
<path d="M1095 1496 c-101 -44 -125 -178 -46 -257 65 -65 157 -65 222 0 124
124 -15 327 -176 257z"/>
<path d="M1095 926 c-101 -44 -125 -178 -46 -257 65 -65 157 -65 222 0 124
124 -15 327 -176 257z"/>
<path d="M1575 926 c-67 -29 -105 -106 -91 -181 9 -47 59 -102 104 -115 24 -7
156 -10 379 -8 327 3 343 4 369 24 53 39 69 71 69 134 0 63 -16 95 -69 134
-26 20 -41 21 -379 23 -277 2 -358 0 -382 -11z"/>
</g>
</svg>
