<?xml version="1.0" standalone="no"?>
<!DOCTYPE svg PUBLIC "-//W3C//DTD SVG 20010904//EN"
 "http://www.w3.org/TR/2001/REC-SVG-20010904/DTD/svg10.dtd">
<svg version="1.0" xmlns="http://www.w3.org/2000/svg"
 width="512.000000pt" height="512.000000pt" viewBox="0 0 512.000000 512.000000"
 preserveAspectRatio="xMidYMid meet">

<g transform="translate(0.000000,512.000000) scale(0.100000,-0.100000)"
fill="#000000" stroke="none">
<path d="M871 4594 c-132 -35 -255 -137 -311 -256 -16 -35 -41 -112 -54 -171
-13 -60 -26 -110 -28 -111 -2 -1 -33 -7 -71 -13 -189 -31 -343 -172 -392 -358
-13 -52 -15 -229 -15 -1405 0 -1481 -3 -1400 61 -1521 62 -115 197 -214 328
-239 73 -14 4267 -14 4342 0 183 34 344 195 379 379 14 74 14 2688 0 2762 -25
131 -124 266 -239 328 -114 60 -122 61 -713 61 l-538 0 -5 23 c-30 137 -58
233 -80 277 -58 114 -180 211 -310 245 -86 22 -2271 22 -2354 -1z m1025 -330
c52 -38 64 -67 104 -253 22 -101 45 -191 50 -202 6 -10 27 -31 47 -46 l36 -28
1276 -5 c1258 -5 1276 -5 1311 -25 21 -12 44 -39 58 -65 l22 -44 0 -1316 0
-1316 -23 -44 c-16 -33 -34 -51 -67 -68 l-45 -22 -2122 2 -2122 3 -27 21 c-15
11 -37 33 -48 48 -21 27 -21 30 -21 1376 0 1346 0 1349 21 1376 45 61 66 69
198 74 115 5 125 7 159 33 20 15 41 36 47 47 5 10 26 92 45 182 20 90 40 177
45 194 12 35 53 78 90 93 16 6 193 9 482 8 444 -2 457 -3 484 -23z m1272 11
c70 -30 92 -66 117 -192 l7 -33 -486 0 -486 0 -5 23 c-2 12 -15 66 -28 120
l-23 97 433 0 c369 0 439 -2 471 -15z"/>
<path d="M1980 3426 c-152 -33 -256 -90 -365 -200 -44 -45 -97 -110 -118 -146
-176 -303 -102 -711 179 -986 68 -67 73 -75 83 -130 5 -33 13 -102 16 -154 10
-148 34 -274 77 -408 35 -107 46 -130 89 -176 66 -72 130 -100 229 -100 99 0
163 28 229 100 56 61 64 81 117 307 21 86 41 157 44 157 3 0 23 -71 44 -157
20 -87 44 -179 52 -205 20 -61 92 -141 158 -176 44 -23 63 -27 136 -26 104 0
163 27 233 104 39 43 52 70 83 163 45 139 70 271 79 407 3 58 11 132 17 165
11 55 17 65 83 130 115 113 193 242 242 402 23 76 26 106 27 223 0 126 -2 141
-31 223 -44 124 -86 190 -183 287 -94 94 -197 155 -320 187 -100 27 -284 24
-380 -6 -80 -25 -143 -54 -202 -95 l-38 -25 -44 30 c-59 39 -137 74 -211 94
-83 23 -245 28 -325 11z m316 -350 c88 -44 141 -101 193 -206 56 -113 126
-150 217 -115 90 34 124 124 85 223 -12 29 -21 57 -21 63 0 18 124 69 186 75
266 28 480 -206 434 -475 -18 -109 -83 -232 -162 -307 -35 -33 -72 -67 -83
-75 -11 -8 -28 -24 -38 -35 -30 -36 -66 -204 -82 -388 -10 -119 -23 -202 -41
-262 -14 -49 -27 -90 -29 -93 -7 -6 -11 8 -70 253 -30 126 -64 244 -76 262
-51 83 -156 144 -249 144 -101 0 -216 -73 -257 -162 -11 -24 -43 -142 -72
-263 -58 -243 -60 -250 -66 -244 -2 3 -15 44 -30 93 -17 61 -30 144 -40 258
-16 178 -43 326 -70 377 -8 17 -45 56 -82 86 -86 71 -145 151 -185 250 -28 71
-32 91 -33 180 0 92 3 105 32 167 40 85 97 147 172 186 79 43 122 52 215 47
66 -3 91 -9 152 -39z"/>
</g>
</svg>
