<?xml version="1.0" standalone="no"?>
<!DOCTYPE svg PUBLIC "-//W3C//DTD SVG 20010904//EN"
 "http://www.w3.org/TR/2001/REC-SVG-20010904/DTD/svg10.dtd">
<svg version="1.0" xmlns="http://www.w3.org/2000/svg"
 width="512.000000pt" height="512.000000pt" viewBox="0 0 512.000000 512.000000"
 preserveAspectRatio="xMidYMid meet">

<g transform="translate(0.000000,512.000000) scale(0.100000,-0.100000)"
fill="#000000" stroke="none">
<path d="M1345 5101 c-53 -33 -753 -744 -760 -771 -3 -14 -4 -971 -3 -2127 l3
-2102 21 -27 c11 -15 33 -37 48 -48 l27 -21 1879 0 1879 0 27 21 c15 11 37 33
48 48 l21 27 0 2459 0 2459 -21 27 c-11 15 -33 37 -48 48 -27 21 -30 21 -1559
24 -1489 2 -1533 2 -1562 -17z m2875 -2541 l0 -2240 -1660 0 -1660 0 0 1899 0
1899 223 4 c218 3 223 4 273 30 76 40 107 70 145 140 l34 63 3 223 4 222 1319
0 1319 0 0 -2240z m-2960 1945 l0 -65 -67 0 -67 0 64 65 c35 36 66 65 67 65 2
0 3 -29 3 -65z"/>
<path d="M1980 4066 c-152 -33 -256 -90 -365 -200 -44 -45 -97 -110 -118 -146
-176 -303 -102 -711 179 -986 68 -67 73 -75 83 -130 5 -33 13 -102 16 -154 10
-148 34 -274 77 -408 35 -107 46 -130 89 -176 66 -72 130 -100 229 -100 99 0
163 28 229 100 56 61 64 81 117 307 21 86 41 157 44 157 3 0 23 -71 44 -157
20 -87 44 -179 52 -205 20 -61 92 -141 158 -176 44 -23 63 -27 136 -26 104 0
163 27 233 104 39 43 52 70 83 163 45 139 70 271 79 407 3 58 11 132 17 165
11 55 17 65 83 130 115 113 193 242 242 402 23 76 26 106 27 223 0 126 -2 141
-31 223 -44 124 -86 190 -183 287 -94 94 -197 155 -320 187 -100 27 -284 24
-380 -6 -80 -25 -143 -54 -202 -95 l-38 -25 -44 30 c-59 39 -137 74 -211 94
-83 23 -245 28 -325 11z m316 -350 c88 -44 141 -101 193 -206 56 -113 126
-150 217 -115 90 34 124 124 85 223 -12 29 -21 57 -21 63 0 18 124 69 186 75
266 28 480 -206 434 -475 -18 -109 -83 -232 -162 -307 -35 -33 -72 -67 -83
-75 -11 -8 -28 -24 -38 -35 -30 -36 -66 -204 -82 -388 -10 -119 -23 -202 -41
-262 -14 -49 -27 -90 -29 -93 -7 -6 -11 8 -70 253 -30 126 -64 244 -76 262
-51 83 -156 144 -249 144 -101 0 -216 -73 -257 -162 -11 -24 -43 -142 -72
-263 -58 -243 -60 -250 -66 -244 -2 3 -15 44 -30 93 -17 61 -30 144 -40 258
-16 178 -43 326 -70 377 -8 17 -45 56 -82 86 -86 71 -145 151 -185 250 -28 71
-32 91 -33 180 0 92 3 105 32 167 40 85 97 147 172 186 79 43 122 52 215 47
66 -3 91 -9 152 -39z"/>
<path d="M1275 1506 c-67 -29 -105 -106 -91 -181 9 -47 59 -102 104 -115 26
-8 431 -10 1294 -8 1251 3 1257 3 1284 24 53 39 69 71 69 134 0 63 -16 95 -69
134 -27 21 -32 21 -1294 23 -1038 2 -1273 0 -1297 -11z"/>
<path d="M1275 946 c-67 -29 -105 -106 -91 -181 9 -47 59 -102 104 -115 26 -8
431 -10 1294 -8 1251 3 1257 3 1284 24 53 39 69 71 69 134 0 63 -16 95 -69
134 -27 21 -32 21 -1294 23 -1038 2 -1273 0 -1297 -11z"/>
</g>
</svg>
