<?xml version="1.0" standalone="no"?>
<!DOCTYPE svg PUBLIC "-//W3C//DTD SVG 20010904//EN"
 "http://www.w3.org/TR/2001/REC-SVG-20010904/DTD/svg10.dtd">
<svg version="1.0" xmlns="http://www.w3.org/2000/svg"
 width="512.000000pt" height="512.000000pt" viewBox="0 0 512.000000 512.000000"
 preserveAspectRatio="xMidYMid meet">

<g transform="translate(0.000000,512.000000) scale(0.100000,-0.100000)"
fill="#000000" stroke="none">
<path d="M2861 4899 l-594 -168 -41 35 c-259 222 -670 64 -729 -281 -32 -188
73 -385 252 -473 74 -36 79 -37 191 -37 112 0 117 1 192 37 149 71 244 206
257 366 l6 77 130 36 c455 129 602 170 618 175 16 5 17 -41 17 -875 l0 -881
-786 2 -786 3 -298 689 c-174 400 -314 711 -336 743 -176 256 -547 295 -778
83 -107 -99 -163 -215 -173 -355 -3 -53 0 -100 9 -140 8 -33 185 -513 393
-1067 l378 -1008 1306 0 1307 0 422 -463 c241 -264 443 -476 471 -495 115 -79
276 -111 414 -82 131 27 273 129 340 243 95 162 100 349 14 515 -22 43 -201
263 -567 697 l-535 634 -247 0 -248 1 0 300 0 300 150 0 149 0 3 -147 3 -148
528 -3 527 -2 0 455 0 455 -527 -2 -528 -3 -3 -147 -3 -148 -149 0 -150 0 -2
623 -3 623 -594 -167z"/>
<path d="M2110 1335 l0 -225 300 0 300 0 0 225 0 225 -300 0 -300 0 0 -225z"/>
<path d="M1444 578 l-89 -223 -227 -3 -228 -2 0 -150 0 -150 1505 0 1505 0 0
150 0 150 -223 0 -223 0 -90 225 -89 225 -876 0 -875 0 -90 -222z"/>
</g>
</svg>
