<?xml version="1.0" standalone="no"?>
<!DOCTYPE svg PUBLIC "-//W3C//DTD SVG 20010904//EN"
 "http://www.w3.org/TR/2001/REC-SVG-20010904/DTD/svg10.dtd">
<svg version="1.0" xmlns="http://www.w3.org/2000/svg"
 width="512.000000pt" height="512.000000pt" viewBox="0 0 512.000000 512.000000"
 preserveAspectRatio="xMidYMid meet">

<g transform="translate(0.000000,512.000000) scale(0.100000,-0.100000)"
fill="#000000" stroke="none">
<path d="M2100 5114 c-711 -65 -1329 -429 -1715 -1009 -188 -282 -308 -592
-362 -935 -24 -159 -24 -499 1 -660 155 -1006 921 -1771 1928 -1927 142 -22
491 -24 623 -5 188 28 371 75 526 135 l67 25 6 -36 c3 -21 6 -53 6 -73 0 -70
30 -215 71 -342 36 -113 47 -134 90 -181 66 -72 130 -100 229 -100 99 0 163
28 229 100 56 61 64 81 117 307 21 86 41 157 44 157 3 0 23 -71 44 -157 20
-87 44 -179 52 -205 20 -61 92 -141 158 -176 44 -23 63 -27 136 -26 104 0 163
27 233 104 39 43 52 70 83 163 45 139 70 271 79 407 3 58 11 132 17 165 11 55
17 65 83 130 115 113 193 242 242 402 23 76 26 106 27 223 0 126 -2 141 -31
223 -44 124 -86 190 -183 287 -97 97 -203 158 -325 187 -38 9 -71 17 -72 18
-2 1 6 46 17 101 145 751 -114 1553 -672 2079 -340 320 -767 529 -1228 600
-101 15 -428 27 -520 19z m371 -324 c765 -78 1415 -594 1663 -1322 75 -218
113 -487 102 -709 -6 -131 -35 -322 -62 -421 -16 -57 -17 -58 -82 -88 -37 -17
-81 -42 -99 -56 l-33 -25 -35 27 c-24 18 -34 32 -30 43 21 54 67 230 81 306
22 128 29 349 15 475 -45 392 -222 760 -500 1037 -408 408 -989 582 -1561 467
-201 -41 -466 -156 -636 -277 -565 -402 -834 -1078 -698 -1757 35 -173 134
-417 231 -569 165 -257 402 -472 673 -610 276 -140 556 -201 855 -188 166 8
406 55 517 102 13 5 22 -4 41 -42 14 -26 43 -73 66 -103 l41 -54 -33 -14 c-75
-31 -261 -82 -376 -101 -776 -132 -1541 204 -1975 866 -640 977 -268 2308 790
2824 324 158 692 224 1045 189z m91 -580 c276 -58 495 -177 699 -380 258 -257
393 -558 416 -924 9 -162 -23 -384 -79 -533 l-19 -53 -65 0 c-101 0 -209 -27
-314 -77 -81 -39 -107 -59 -185 -137 -138 -139 -201 -278 -212 -468 l-6 -98
-51 -19 c-310 -115 -698 -102 -1017 34 -420 180 -723 552 -821 1008 -31 146
-31 408 0 554 58 271 174 490 361 685 104 109 195 182 316 251 149 87 342 152
517 176 110 15 346 5 460 -19z m1054 -2224 c126 -33 209 -105 273 -236 56
-113 126 -150 217 -115 90 34 124 124 85 223 -12 29 -21 57 -21 63 0 18 124
69 186 75 266 28 480 -206 434 -475 -18 -109 -83 -232 -162 -307 -35 -33 -72
-67 -83 -75 -11 -8 -28 -24 -38 -35 -30 -36 -66 -204 -82 -388 -10 -119 -23
-202 -41 -262 -14 -49 -27 -90 -29 -93 -7 -6 -11 8 -70 253 -30 126 -64 244
-76 262 -51 83 -156 144 -249 144 -101 0 -216 -73 -257 -162 -11 -24 -43 -142
-72 -263 -58 -243 -60 -250 -66 -244 -2 3 -15 44 -30 93 -17 61 -30 144 -40
258 -16 178 -43 326 -70 377 -8 17 -45 55 -81 85 -111 92 -173 189 -210 328
-46 179 36 372 195 456 96 52 189 64 287 38z"/>
<path d="M2215 3966 c-69 -31 -95 -84 -95 -190 l0 -73 -62 -12 c-279 -54 -464
-329 -407 -603 31 -148 141 -290 274 -353 98 -46 152 -55 346 -55 181 0 218
-7 268 -53 31 -29 61 -94 61 -135 0 -40 -24 -99 -53 -130 -52 -56 -53 -57
-444 -62 -345 -5 -363 -6 -389 -26 -53 -39 -69 -71 -69 -134 0 -63 16 -95 69
-134 25 -19 44 -21 216 -24 l188 -3 4 -89 c3 -95 15 -122 72 -164 39 -29 133
-29 172 0 57 42 69 69 72 164 l4 88 65 12 c233 44 413 262 413 500 0 229 -168
442 -391 495 -44 10 -118 15 -237 15 -184 0 -221 7 -271 53 -31 29 -61 94 -61
135 0 40 24 99 53 130 52 56 53 57 444 62 345 5 363 6 389 26 53 39 69 71 69
134 0 63 -16 95 -69 134 -25 19 -44 21 -216 24 l-188 3 -4 89 c-3 95 -15 122
-70 163 -34 25 -113 32 -153 13z"/>
</g>
</svg>
