<?xml version="1.0" standalone="no"?>
<!DOCTYPE svg PUBLIC "-//W3C//DTD SVG 20010904//EN"
 "http://www.w3.org/TR/2001/REC-SVG-20010904/DTD/svg10.dtd">
<svg version="1.0" xmlns="http://www.w3.org/2000/svg"
 width="512.000000pt" height="512.000000pt" viewBox="0 0 512.000000 512.000000"
 preserveAspectRatio="xMidYMid meet">

<g transform="translate(0.000000,512.000000) scale(0.100000,-0.100000)"
fill="#000000" stroke="none">
<path d="M675 5106 c-41 -18 -83 -69 -90 -109 -3 -18 -4 -1126 -3 -2464 l3
-2432 21 -27 c11 -15 33 -37 48 -48 27 -21 30 -21 1554 -24 1055 -1 1535 1
1553 8 38 16 767 750 774 780 3 14 4 971 3 2127 l-3 2102 -21 27 c-31 42 -67
65 -111 71 -31 4 -88 -10 -258 -62 l-219 -67 -216 66 c-119 36 -227 66 -240
66 -13 0 -121 -30 -239 -66 l-215 -66 -216 66 c-119 36 -227 66 -240 66 -13 0
-121 -30 -239 -66 l-215 -66 -216 66 c-119 36 -227 66 -240 66 -13 0 -121 -30
-239 -66 l-215 -66 -216 66 c-225 69 -255 74 -305 52z m1196 -381 c116 -36
221 -65 234 -65 13 0 121 30 240 66 l216 66 217 -66 c119 -36 227 -66 239 -66
11 0 119 30 238 66 l216 66 217 -66 c119 -36 227 -66 239 -66 12 0 80 18 152
40 71 22 133 40 136 40 3 0 5 -841 5 -1869 l0 -1870 -222 -3 c-256 -3 -280
-10 -363 -93 -83 -83 -90 -107 -93 -362 l-3 -223 -1320 0 -1319 0 0 2210 c0
1216 3 2210 6 2210 4 0 65 -18 136 -40 72 -22 142 -40 157 -40 14 1 118 30
231 65 113 35 211 64 217 64 7 1 108 -28 224 -64z m2119 -4048 c0 -1 -29 -32
-65 -67 l-65 -64 0 67 0 67 65 0 c36 0 65 -1 65 -3z"/>
<path d="M1980 4526 c-152 -33 -256 -90 -365 -200 -44 -45 -97 -110 -118 -146
-176 -303 -102 -711 179 -986 68 -67 73 -75 83 -130 5 -33 13 -102 16 -154 10
-148 34 -274 77 -408 35 -107 46 -130 89 -176 66 -72 130 -100 229 -100 99 0
163 28 229 100 56 61 64 81 117 307 21 86 41 157 44 157 3 0 23 -71 44 -157
20 -87 44 -179 52 -205 20 -61 92 -141 158 -176 44 -23 63 -27 136 -26 104 0
163 27 233 104 39 43 52 70 83 163 45 139 70 271 79 407 3 58 11 132 17 165
11 55 17 65 83 130 115 113 193 242 242 402 23 76 26 106 27 223 0 126 -2 141
-31 223 -44 124 -86 190 -183 287 -94 94 -197 155 -320 187 -100 27 -284 24
-380 -6 -80 -25 -143 -54 -202 -95 l-38 -25 -44 30 c-59 39 -137 74 -211 94
-83 23 -245 28 -325 11z m316 -350 c88 -44 141 -101 193 -206 56 -113 126
-150 217 -115 90 34 124 124 85 223 -12 29 -21 57 -21 63 0 18 124 69 186 75
266 28 480 -206 434 -475 -18 -109 -83 -232 -162 -307 -35 -33 -72 -67 -83
-75 -11 -8 -28 -24 -38 -35 -30 -36 -66 -204 -82 -388 -10 -119 -23 -202 -41
-262 -14 -49 -27 -90 -29 -93 -7 -6 -11 8 -70 253 -30 126 -64 244 -76 262
-51 83 -156 144 -249 144 -103 0 -215 -72 -257 -166 -13 -27 -45 -146 -73
-264 -62 -261 -59 -252 -71 -221 -29 74 -52 194 -64 336 -18 199 -42 324 -75
384 -6 12 -41 46 -77 76 -86 71 -146 151 -185 250 -28 71 -32 91 -33 180 0 92
3 105 32 167 40 85 97 147 172 186 79 43 122 52 215 47 66 -3 91 -9 152 -39z"/>
<path d="M1495 2216 c-65 -30 -95 -84 -95 -174 l-1 -57 -42 -19 c-60 -28 -149
-116 -181 -180 -56 -111 -58 -253 -5 -363 28 -59 107 -144 164 -178 56 -33
145 -55 218 -55 51 0 62 -4 88 -29 36 -37 38 -79 5 -118 l-24 -28 -195 -5
c-214 -5 -222 -8 -271 -74 -29 -39 -29 -133 0 -172 41 -56 69 -69 159 -72 l83
-4 4 -59 c5 -63 23 -97 72 -133 39 -29 133 -29 172 0 54 40 68 70 72 148 4 73
4 73 39 85 51 19 155 121 187 184 39 78 53 170 39 253 -16 93 -56 165 -129
234 -78 72 -146 100 -264 108 -75 5 -88 8 -112 33 -35 35 -37 78 -4 116 l24
28 195 5 c214 5 222 8 271 74 29 39 29 133 0 172 -41 56 -69 69 -159 72 l-83
4 -4 59 c-5 62 -23 97 -70 132 -34 25 -113 32 -153 13z"/>
<path d="M2355 1996 c-101 -44 -125 -178 -46 -257 65 -65 157 -65 222 0 124
124 -15 327 -176 257z"/>
<path d="M2835 1996 c-67 -29 -105 -106 -91 -181 9 -47 59 -102 104 -115 25
-8 204 -10 539 -8 489 3 502 4 529 24 53 39 69 71 69 134 0 63 -16 95 -69 134
-27 21 -40 21 -539 23 -410 2 -518 0 -542 -11z"/>
<path d="M2355 1426 c-101 -44 -125 -178 -46 -257 65 -65 157 -65 222 0 124
124 -15 327 -176 257z"/>
<path d="M2835 1426 c-67 -29 -105 -106 -91 -181 9 -47 59 -102 104 -115 25
-8 204 -10 539 -8 489 3 502 4 529 24 53 39 69 71 69 134 0 63 -16 95 -69 134
-27 21 -40 21 -539 23 -410 2 -518 0 -542 -11z"/>
<path d="M2355 856 c-101 -44 -125 -178 -46 -257 65 -65 157 -65 222 0 124
124 -15 327 -176 257z"/>
<path d="M2835 856 c-97 -43 -124 -171 -54 -251 45 -51 78 -57 296 -53 175 3
194 5 219 24 53 39 69 71 69 134 0 63 -16 95 -69 134 -25 19 -43 21 -229 23
-153 2 -209 0 -232 -11z"/>
</g>
</svg>
